<?xml version="1.0" encoding="UTF-8" standalone="no"?>
<!DOCTYPE svg PUBLIC "-//W3C//DTD SVG 1.1//EN" "http://www.w3.org/Graphics/SVG/1.1/DTD/svg11.dtd">
<svg width="100%" height="100%" viewBox="0 0 23 21" version="1.1" xmlns="http://www.w3.org/2000/svg" xmlns:xlink="http://www.w3.org/1999/xlink" xml:space="preserve" xmlns:serif="http://www.serif.com/" style="fill-rule:evenodd;clip-rule:evenodd;stroke-linecap:round;stroke-linejoin:round;stroke-miterlimit:1.5;">
    <g transform="matrix(1,0,0,1,-9,-639)">
        <g transform="matrix(1,0,0,1,0,2.7501)">
            <g transform="matrix(0.242912,0,0,0.277251,-57.1775,478.512)">
                <g transform="matrix(0.897164,0,0,0.897164,22.6747,58.7181)">
                    <path d="M325.897,628.055L279.99,628.055L279.99,570.988L383.082,570.988L383.082,628.055L337.175,628.055L361.23,651.079L301.842,651.079L325.897,628.055ZM376.266,576.385L286.807,576.385L286.807,622.658L376.266,622.658L376.266,576.385Z" style="fill:rgb(137,198,7);"/>
                </g>
                <g transform="matrix(0.5,0,0,0.5,107.112,273.801)">
                    <circle cx="368.363" cy="666.229" r="8.239" style="fill:none;stroke:rgb(137,198,7);stroke-width:7.67px;"/>
                </g>
                <g transform="matrix(0.5,0,0,0.5,119.64,260.549)">
                    <circle cx="368.363" cy="666.229" r="8.239" style="fill:none;stroke:rgb(137,198,7);stroke-width:7.67px;"/>
                </g>
                <g transform="matrix(0.5,0,0,0.5,137.548,269.681)">
                    <circle cx="368.363" cy="666.229" r="8.239" style="fill:none;stroke:rgb(137,198,7);stroke-width:7.67px;"/>
                </g>
                <g transform="matrix(0.5,0,0,0.5,166.234,251.76)">
                    <circle cx="368.363" cy="666.229" r="8.239" style="fill:none;stroke:rgb(137,198,7);stroke-width:7.67px;"/>
                </g>
                <g transform="matrix(1,0,0,1,-6.11844,0)">
                    <path d="M299.37,602.796L305.82,596.084" style="fill:none;stroke:rgb(137,198,7);stroke-width:3.84px;"/>
                </g>
                <g transform="matrix(1,0,0,1,-6.11844,0)">
                    <path d="M314.059,596.084L323.728,602.796" style="fill:none;stroke:rgb(137,198,7);stroke-width:3.84px;"/>
                </g>
                <g transform="matrix(1,0,0,1,-6.11844,0)">
                    <path d="M331.967,600.5L352.414,587.545" style="fill:none;stroke:rgb(137,198,7);stroke-width:3.84px;"/>
                </g>
            </g>
        </g>
    </g>
</svg>
